<svg xmlns="http://www.w3.org/2000/svg" xmlns:xlink="http://www.w3.org/1999/xlink" width="500" zoomAndPan="magnify" viewBox="0 0 375 374.999991" height="500" preserveAspectRatio="xMidYMid meet" version="1.0"><defs><g/><clipPath id="8eb415304a"><path d="M 75.0625 33.3125 L 300 33.3125 L 300 258.3125 L 75.0625 258.3125 Z M 75.0625 33.3125 " clip-rule="nonzero"/></clipPath></defs><rect x="-37.5" width="450" fill="#ffffff" y="-37.499999" height="449.999989" fill-opacity="1"/><rect x="-37.5" width="450" fill="#ffffff" y="-37.499999" height="449.999989" fill-opacity="1"/><g fill="#a8cf45" fill-opacity="1"><g transform="translate(39.97301, 320.188808)"><g><path d="M 35 -49.28125 L 35 -40.1875 L 17.21875 -40.1875 L 17.21875 -29.609375 L 32.90625 -29.609375 L 32.90625 -20.515625 L 17.21875 -20.515625 L 17.21875 -9.09375 L 35 -9.09375 L 35 0 L 5.25 0 L 5.25 -49.28125 Z M 35 -49.28125 "/></g></g></g><g fill="#a8cf45" fill-opacity="1"><g transform="translate(78.260827, 320.188808)"><g><path d="M 7.796875 -4.96875 C 4.179688 -8.613281 2.375 -13.46875 2.375 -19.53125 C 2.375 -25.59375 4.179688 -30.429688 7.796875 -34.046875 C 11.421875 -37.671875 16.101562 -39.484375 21.84375 -39.484375 C 26.601562 -39.484375 30.640625 -38.300781 33.953125 -35.9375 C 37.265625 -33.582031 39.457031 -30.210938 40.53125 -25.828125 L 27.578125 -25.828125 C 26.460938 -28.160156 24.628906 -29.328125 22.078125 -29.328125 C 19.535156 -29.328125 17.644531 -28.425781 16.40625 -26.625 C 15.175781 -24.832031 14.5625 -22.46875 14.5625 -19.53125 C 14.5625 -16.59375 15.175781 -14.222656 16.40625 -12.421875 C 17.644531 -10.628906 19.457031 -9.734375 21.84375 -9.734375 C 23.332031 -9.734375 24.492188 -9.988281 25.328125 -10.5 C 26.171875 -11.007812 26.921875 -11.921875 27.578125 -13.234375 L 40.53125 -13.234375 C 39.457031 -9.035156 37.238281 -5.695312 33.875 -3.21875 C 30.519531 -0.75 26.507812 0.484375 21.84375 0.484375 C 16.101562 0.484375 11.421875 -1.332031 7.796875 -4.96875 Z M 7.796875 -4.96875 "/></g></g></g><g fill="#a8cf45" fill-opacity="1"><g transform="translate(118.508536, 320.188808)"><g><path d="M 28.6875 -12.25 C 30.28125 -13.925781 31.078125 -16.351562 31.078125 -19.53125 C 31.078125 -22.707031 30.257812 -25.125 28.625 -26.78125 C 27 -28.4375 25.0625 -29.265625 22.8125 -29.265625 C 20.570312 -29.265625 18.644531 -28.4375 17.03125 -26.78125 C 15.425781 -25.125 14.625 -22.707031 14.625 -19.53125 C 14.625 -16.351562 15.453125 -13.925781 17.109375 -12.25 C 18.765625 -10.570312 20.710938 -9.734375 22.953125 -9.734375 C 25.191406 -9.734375 27.101562 -10.570312 28.6875 -12.25 Z M 8.359375 -5.03125 C 4.421875 -8.71875 2.453125 -13.570312 2.453125 -19.59375 C 2.453125 -25.613281 4.410156 -30.429688 8.328125 -34.046875 C 12.242188 -37.671875 17.09375 -39.484375 22.875 -39.484375 C 28.664062 -39.484375 33.507812 -37.671875 37.40625 -34.046875 C 41.3125 -30.429688 43.265625 -25.613281 43.265625 -19.59375 C 43.265625 -13.570312 41.328125 -8.71875 37.453125 -5.03125 C 33.578125 -1.351562 28.742188 0.484375 22.953125 0.484375 C 17.171875 0.484375 12.304688 -1.351562 8.359375 -5.03125 Z M 8.359375 -5.03125 "/></g></g></g><g fill="#a8cf45" fill-opacity="1"><g transform="translate(162.466039, 320.188808)"><g><path d="M 1.890625 -40.046875 L 1.890625 -49.140625 L 40.671875 -49.140625 L 40.671875 -40.046875 L 27.234375 -40.046875 L 27.234375 0 L 15.265625 0 L 15.265625 -40.046875 Z M 1.890625 -40.046875 "/></g></g></g><g fill="#a8cf45" fill-opacity="1"><g transform="translate(203.273723, 320.188808)"><g><path d="M 21.84375 0.484375 C 16.144531 0.484375 11.472656 -1.34375 7.828125 -5 C 4.191406 -8.664062 2.375 -13.53125 2.375 -19.59375 C 2.375 -25.664062 4.179688 -30.5 7.796875 -34.09375 C 11.421875 -37.6875 16.101562 -39.484375 21.84375 -39.484375 C 27.582031 -39.484375 32.34375 -37.707031 36.125 -34.15625 C 39.90625 -30.613281 41.796875 -25.691406 41.796875 -19.390625 C 41.796875 -18.035156 41.703125 -16.773438 41.515625 -15.609375 L 14.625 -15.609375 C 14.863281 -13.878906 15.632812 -12.46875 16.9375 -11.375 C 18.25 -10.28125 19.660156 -9.734375 21.171875 -9.734375 C 22.691406 -9.734375 23.820312 -9.882812 24.5625 -10.1875 C 25.3125 -10.488281 25.859375 -10.789062 26.203125 -11.09375 C 26.554688 -11.394531 27.015625 -11.894531 27.578125 -12.59375 L 40.53125 -12.59375 C 39.40625 -8.675781 37.160156 -5.515625 33.796875 -3.109375 C 30.441406 -0.710938 26.457031 0.484375 21.84375 0.484375 Z M 29.328125 -23.09375 C 29.140625 -24.914062 28.34375 -26.398438 26.9375 -27.546875 C 25.539062 -28.691406 23.882812 -29.265625 21.96875 -29.265625 C 20.0625 -29.265625 18.453125 -28.691406 17.140625 -27.546875 C 15.835938 -26.398438 15.023438 -24.914062 14.703125 -23.09375 Z M 29.328125 -23.09375 "/></g></g></g><g fill="#a8cf45" fill-opacity="1"><g transform="translate(245.761296, 320.188808)"><g><path d="M 7.796875 -4.96875 C 4.179688 -8.613281 2.375 -13.46875 2.375 -19.53125 C 2.375 -25.59375 4.179688 -30.429688 7.796875 -34.046875 C 11.421875 -37.671875 16.101562 -39.484375 21.84375 -39.484375 C 26.601562 -39.484375 30.640625 -38.300781 33.953125 -35.9375 C 37.265625 -33.582031 39.457031 -30.210938 40.53125 -25.828125 L 27.578125 -25.828125 C 26.460938 -28.160156 24.628906 -29.328125 22.078125 -29.328125 C 19.535156 -29.328125 17.644531 -28.425781 16.40625 -26.625 C 15.175781 -24.832031 14.5625 -22.46875 14.5625 -19.53125 C 14.5625 -16.59375 15.175781 -14.222656 16.40625 -12.421875 C 17.644531 -10.628906 19.457031 -9.734375 21.84375 -9.734375 C 23.332031 -9.734375 24.492188 -9.988281 25.328125 -10.5 C 26.171875 -11.007812 26.921875 -11.921875 27.578125 -13.234375 L 40.53125 -13.234375 C 39.457031 -9.035156 37.238281 -5.695312 33.875 -3.21875 C 30.519531 -0.75 26.507812 0.484375 21.84375 0.484375 C 16.101562 0.484375 11.421875 -1.332031 7.796875 -4.96875 Z M 7.796875 -4.96875 "/></g></g></g><g fill="#a8cf45" fill-opacity="1"><g transform="translate(286.008997, 320.188808)"><g><path d="M 17.21875 -51.796875 L 17.21875 -33.3125 C 19.695312 -37.425781 23.640625 -39.484375 29.046875 -39.484375 C 33.523438 -39.484375 37.148438 -37.988281 39.921875 -35 C 42.703125 -32.007812 44.09375 -27.945312 44.09375 -22.8125 L 44.09375 0 L 32.203125 0 L 32.203125 -21.203125 C 32.203125 -23.722656 31.535156 -25.671875 30.203125 -27.046875 C 28.867188 -28.429688 27.035156 -29.125 24.703125 -29.125 C 22.367188 -29.125 20.535156 -28.429688 19.203125 -27.046875 C 17.878906 -25.671875 17.21875 -23.722656 17.21875 -21.203125 L 17.21875 0 L 5.25 0 L 5.25 -51.796875 Z M 17.21875 -51.796875 "/></g></g></g><path fill="#8fc960" d="M 161.691406 158.210938 C 161.691406 158.210938 161.691406 128.8125 191.847656 127.324219 C 206.722656 126.585938 213.839844 122.050781 217.234375 117.640625 C 218.414062 116.105469 220.855469 117.046875 220.808594 118.980469 C 220.371094 136.507812 216.023438 171.234375 161.6875 158.210938 Z M 161.691406 158.210938 " fill-opacity="1" fill-rule="nonzero"/><path fill="#408245" d="M 161.851562 153.960938 C 156.085938 158.636719 153.746094 165.414062 154.421875 174.039062 C 154.445312 175.988281 156.03125 177.554688 157.976562 177.554688 L 158.015625 177.554688 C 159.976562 177.53125 161.632812 175.921875 161.53125 173.960938 C 160.824219 160.472656 164.640625 153.386719 203.902344 138.976562 C 179.699219 139.796875 161.847656 153.964844 161.847656 153.964844 Z M 161.851562 153.960938 " fill-opacity="1" fill-rule="nonzero"/><g clip-path="url(#8eb415304a)"><path fill="#408245" d="M 271.460938 145.8125 C 271.460938 143.054688 271.316406 140.332031 271.058594 137.640625 L 299.269531 125.558594 L 289.839844 96.542969 L 259.910156 103.347656 C 257.136719 98.628906 253.917969 94.210938 250.304688 90.140625 L 266.03125 63.765625 L 241.351562 45.835938 L 221.140625 68.925781 C 216.191406 66.761719 210.992188 65.0625 205.597656 63.878906 L 202.820312 33.316406 L 172.3125 33.316406 L 169.53125 63.878906 C 164.136719 65.0625 158.941406 66.761719 153.992188 68.925781 L 133.777344 45.835938 L 109.097656 63.765625 L 124.824219 90.140625 C 121.210938 94.210938 117.996094 98.628906 115.21875 103.34375 L 85.285156 96.539062 L 75.859375 125.554688 L 104.070312 137.640625 C 103.8125 140.332031 103.671875 143.058594 103.671875 145.816406 C 103.671875 148.570312 103.8125 151.292969 104.070312 153.980469 L 75.863281 166.070312 L 85.289062 195.082031 L 115.21875 188.277344 C 117.996094 192.996094 121.210938 197.421875 124.828125 201.488281 L 109.101562 227.863281 L 133.78125 245.796875 L 153.996094 222.703125 C 158.945312 224.871094 164.140625 226.566406 169.535156 227.746094 L 172.316406 258.3125 L 202.824219 258.3125 L 205.601562 227.746094 C 210.996094 226.5625 216.195312 224.867188 221.148438 222.699219 L 241.359375 245.792969 L 266.039062 227.859375 L 250.3125 201.484375 C 253.925781 197.417969 257.144531 192.996094 259.914062 188.28125 L 289.84375 195.085938 L 299.273438 166.074219 L 271.0625 153.988281 C 271.320312 151.296875 271.464844 148.574219 271.464844 145.820312 Z M 187.5625 205.058594 C 154.839844 205.058594 128.3125 178.53125 128.3125 145.8125 C 128.3125 113.089844 154.839844 86.5625 187.5625 86.5625 C 220.28125 86.5625 246.808594 113.089844 246.808594 145.8125 C 246.808594 178.53125 220.28125 205.058594 187.5625 205.058594 Z M 187.5625 205.058594 " fill-opacity="1" fill-rule="nonzero"/></g></svg>