<svg xmlns="http://www.w3.org/2000/svg" xmlns:xlink="http://www.w3.org/1999/xlink" width="400" zoomAndPan="magnify" viewBox="0 0 300 74.999997" height="100" preserveAspectRatio="xMidYMid meet" version="1.0"><defs><g/><clipPath id="1f4b4460ec"><path d="M 58.171875 9.496094 L 114.421875 9.496094 L 114.421875 65.746094 L 58.171875 65.746094 Z M 58.171875 9.496094 " clip-rule="nonzero"/></clipPath></defs><rect x="-30" width="360" fill="#ffffff" y="-7.5" height="89.999996" fill-opacity="1"/><rect x="-30" width="360" fill="#ffffff" y="-7.5" height="89.999996" fill-opacity="1"/><g fill="#a8cf45" fill-opacity="1"><g transform="translate(118.410299, 45.67984)"><g><path d="M 14.140625 -19.90625 L 14.140625 -16.234375 L 6.953125 -16.234375 L 6.953125 -11.96875 L 13.296875 -11.96875 L 13.296875 -8.28125 L 6.953125 -8.28125 L 6.953125 -3.671875 L 14.140625 -3.671875 L 14.140625 0 L 2.125 0 L 2.125 -19.90625 Z M 14.140625 -19.90625 "/></g></g></g><g fill="#a8cf45" fill-opacity="1"><g transform="translate(133.876392, 45.67984)"><g><path d="M 3.15625 -2 C 1.695312 -3.476562 0.96875 -5.441406 0.96875 -7.890625 C 0.96875 -10.335938 1.695312 -12.289062 3.15625 -13.75 C 4.613281 -15.21875 6.503906 -15.953125 8.828125 -15.953125 C 10.742188 -15.953125 12.367188 -15.472656 13.703125 -14.515625 C 15.046875 -13.566406 15.9375 -12.207031 16.375 -10.4375 L 11.140625 -10.4375 C 10.691406 -11.375 9.953125 -11.84375 8.921875 -11.84375 C 7.890625 -11.84375 7.125 -11.476562 6.625 -10.75 C 6.125 -10.03125 5.875 -9.078125 5.875 -7.890625 C 5.875 -6.703125 6.125 -5.742188 6.625 -5.015625 C 7.125 -4.296875 7.859375 -3.9375 8.828125 -3.9375 C 9.429688 -3.9375 9.898438 -4.035156 10.234375 -4.234375 C 10.578125 -4.441406 10.878906 -4.8125 11.140625 -5.34375 L 16.375 -5.34375 C 15.9375 -3.644531 15.039062 -2.296875 13.6875 -1.296875 C 12.332031 -0.296875 10.710938 0.203125 8.828125 0.203125 C 6.503906 0.203125 4.613281 -0.53125 3.15625 -2 Z M 3.15625 -2 "/></g></g></g><g fill="#a8cf45" fill-opacity="1"><g transform="translate(150.13417, 45.67984)"><g><path d="M 11.59375 -4.953125 C 12.238281 -5.628906 12.5625 -6.609375 12.5625 -7.890625 C 12.5625 -9.171875 12.226562 -10.144531 11.5625 -10.8125 C 10.90625 -11.488281 10.125 -11.828125 9.21875 -11.828125 C 8.3125 -11.828125 7.53125 -11.488281 6.875 -10.8125 C 6.226562 -10.144531 5.90625 -9.171875 5.90625 -7.890625 C 5.90625 -6.609375 6.238281 -5.628906 6.90625 -4.953125 C 7.582031 -4.273438 8.375 -3.9375 9.28125 -3.9375 C 10.1875 -3.9375 10.957031 -4.273438 11.59375 -4.953125 Z M 3.375 -2.03125 C 1.78125 -3.519531 0.984375 -5.476562 0.984375 -7.90625 C 0.984375 -10.34375 1.773438 -12.289062 3.359375 -13.75 C 4.941406 -15.21875 6.898438 -15.953125 9.234375 -15.953125 C 11.578125 -15.953125 13.535156 -15.21875 15.109375 -13.75 C 16.691406 -12.289062 17.484375 -10.34375 17.484375 -7.90625 C 17.484375 -5.476562 16.695312 -3.519531 15.125 -2.03125 C 13.5625 -0.539062 11.609375 0.203125 9.265625 0.203125 C 6.929688 0.203125 4.96875 -0.539062 3.375 -2.03125 Z M 3.375 -2.03125 "/></g></g></g><g fill="#a8cf45" fill-opacity="1"><g transform="translate(167.890493, 45.67984)"><g><path d="M 0.765625 -16.171875 L 0.765625 -19.859375 L 16.4375 -19.859375 L 16.4375 -16.171875 L 11 -16.171875 L 11 0 L 6.171875 0 L 6.171875 -16.171875 Z M 0.765625 -16.171875 "/></g></g></g><g fill="#a8cf45" fill-opacity="1"><g transform="translate(184.374469, 45.67984)"><g><path d="M 8.828125 0.203125 C 6.523438 0.203125 4.640625 -0.535156 3.171875 -2.015625 C 1.703125 -3.492188 0.96875 -5.457031 0.96875 -7.90625 C 0.96875 -10.363281 1.695312 -12.316406 3.15625 -13.765625 C 4.613281 -15.222656 6.5 -15.953125 8.8125 -15.953125 C 11.132812 -15.953125 13.0625 -15.234375 14.59375 -13.796875 C 16.125 -12.367188 16.890625 -10.378906 16.890625 -7.828125 C 16.890625 -7.285156 16.847656 -6.78125 16.765625 -6.3125 L 5.90625 -6.3125 C 6 -5.613281 6.3125 -5.039062 6.84375 -4.59375 C 7.375 -4.15625 7.941406 -3.9375 8.546875 -3.9375 C 9.160156 -3.9375 9.617188 -3.992188 9.921875 -4.109375 C 10.222656 -4.234375 10.441406 -4.359375 10.578125 -4.484375 C 10.722656 -4.609375 10.910156 -4.8125 11.140625 -5.09375 L 16.375 -5.09375 C 15.925781 -3.507812 15.019531 -2.226562 13.65625 -1.25 C 12.300781 -0.28125 10.691406 0.203125 8.828125 0.203125 Z M 11.84375 -9.328125 C 11.769531 -10.066406 11.453125 -10.664062 10.890625 -11.125 C 10.328125 -11.59375 9.65625 -11.828125 8.875 -11.828125 C 8.101562 -11.828125 7.453125 -11.59375 6.921875 -11.125 C 6.398438 -10.664062 6.070312 -10.066406 5.9375 -9.328125 Z M 11.84375 -9.328125 "/></g></g></g><g fill="#a8cf45" fill-opacity="1"><g transform="translate(201.537024, 45.67984)"><g><path d="M 3.15625 -2 C 1.695312 -3.476562 0.96875 -5.441406 0.96875 -7.890625 C 0.96875 -10.335938 1.695312 -12.289062 3.15625 -13.75 C 4.613281 -15.21875 6.503906 -15.953125 8.828125 -15.953125 C 10.742188 -15.953125 12.367188 -15.472656 13.703125 -14.515625 C 15.046875 -13.566406 15.9375 -12.207031 16.375 -10.4375 L 11.140625 -10.4375 C 10.691406 -11.375 9.953125 -11.84375 8.921875 -11.84375 C 7.890625 -11.84375 7.125 -11.476562 6.625 -10.75 C 6.125 -10.03125 5.875 -9.078125 5.875 -7.890625 C 5.875 -6.703125 6.125 -5.742188 6.625 -5.015625 C 7.125 -4.296875 7.859375 -3.9375 8.828125 -3.9375 C 9.429688 -3.9375 9.898438 -4.035156 10.234375 -4.234375 C 10.578125 -4.441406 10.878906 -4.8125 11.140625 -5.34375 L 16.375 -5.34375 C 15.9375 -3.644531 15.039062 -2.296875 13.6875 -1.296875 C 12.332031 -0.296875 10.710938 0.203125 8.828125 0.203125 C 6.503906 0.203125 4.613281 -0.53125 3.15625 -2 Z M 3.15625 -2 "/></g></g></g><g fill="#a8cf45" fill-opacity="1"><g transform="translate(217.794799, 45.67984)"><g><path d="M 6.953125 -20.921875 L 6.953125 -13.46875 C 7.953125 -15.125 9.546875 -15.953125 11.734375 -15.953125 C 13.546875 -15.953125 15.007812 -15.347656 16.125 -14.140625 C 17.25 -12.929688 17.8125 -11.289062 17.8125 -9.21875 L 17.8125 0 L 13.015625 0 L 13.015625 -8.5625 C 13.015625 -9.582031 12.742188 -10.367188 12.203125 -10.921875 C 11.660156 -11.484375 10.914062 -11.765625 9.96875 -11.765625 C 9.03125 -11.765625 8.289062 -11.484375 7.75 -10.921875 C 7.21875 -10.367188 6.953125 -9.582031 6.953125 -8.5625 L 6.953125 0 L 2.125 0 L 2.125 -20.921875 Z M 6.953125 -20.921875 "/></g></g></g><path fill="#8fc960" d="M 79.828125 40.722656 C 79.828125 40.722656 79.828125 33.375 87.367188 33 C 91.089844 32.816406 92.867188 31.683594 93.714844 30.578125 C 94.011719 30.195312 94.621094 30.429688 94.609375 30.914062 C 94.5 35.296875 93.414062 43.980469 79.828125 40.722656 Z M 79.828125 40.722656 " fill-opacity="1" fill-rule="nonzero"/><path fill="#408245" d="M 79.871094 39.660156 C 78.429688 40.828125 77.84375 42.523438 78.011719 44.679688 C 78.019531 45.167969 78.414062 45.558594 78.902344 45.558594 L 78.910156 45.558594 C 79.402344 45.554688 79.816406 45.152344 79.789062 44.660156 C 79.613281 41.289062 80.566406 39.515625 90.382812 35.914062 C 84.332031 36.121094 79.867188 39.660156 79.867188 39.660156 Z M 79.871094 39.660156 " fill-opacity="1" fill-rule="nonzero"/><g clip-path="url(#1f4b4460ec)"><path fill="#408245" d="M 107.273438 37.621094 C 107.273438 36.933594 107.238281 36.253906 107.171875 35.582031 L 114.222656 32.558594 L 111.867188 25.304688 L 104.386719 27.007812 C 103.691406 25.828125 102.886719 24.722656 101.984375 23.707031 L 105.914062 17.113281 L 99.746094 12.628906 L 94.691406 18.402344 C 93.453125 17.859375 92.15625 17.4375 90.808594 17.140625 L 90.113281 9.5 L 82.484375 9.5 L 81.789062 17.140625 C 80.441406 17.4375 79.140625 17.859375 77.90625 18.402344 L 72.851562 12.628906 L 66.679688 17.113281 L 70.613281 23.707031 C 69.710938 24.722656 68.90625 25.828125 68.210938 27.003906 L 60.726562 25.304688 L 58.371094 32.558594 L 65.425781 35.582031 C 65.359375 36.253906 65.324219 36.933594 65.324219 37.625 C 65.324219 38.3125 65.359375 38.992188 65.425781 39.664062 L 58.371094 42.6875 L 60.730469 49.941406 L 68.210938 48.238281 C 68.90625 49.417969 69.710938 50.523438 70.613281 51.542969 L 66.683594 58.136719 L 72.851562 62.617188 L 77.90625 56.847656 C 79.144531 57.386719 80.441406 57.8125 81.789062 58.105469 L 82.484375 65.746094 L 90.113281 65.746094 L 90.808594 58.105469 C 92.15625 57.8125 93.457031 57.386719 94.695312 56.84375 L 99.746094 62.617188 L 105.917969 58.136719 L 101.984375 51.542969 C 102.886719 50.523438 103.691406 49.417969 104.386719 48.242188 L 111.867188 49.941406 L 114.226562 42.6875 L 107.171875 39.667969 C 107.238281 38.996094 107.273438 38.3125 107.273438 37.625 Z M 86.296875 52.433594 C 78.117188 52.433594 71.484375 45.804688 71.484375 37.621094 C 71.484375 29.441406 78.117188 22.8125 86.296875 22.8125 C 94.476562 22.8125 101.109375 29.441406 101.109375 37.621094 C 101.109375 45.804688 94.476562 52.433594 86.296875 52.433594 Z M 86.296875 52.433594 " fill-opacity="1" fill-rule="nonzero"/></g></svg>